PathFileType	4	(X/Y/Z)	C:/Users/beibeiliu/ov580/test_trc/User3\sequence.5_training_dense_left.trc
DataRate	CameraRate	NumFrames	NumMarkers	Units	OrigDataRate	OrigDataStartFrame	OrigNumFrames
120	120	15	19	mm	120	1	79
Frame#	Time	ThumbCMC			ThumbMCP			ThumbIP			ThumbTip			IndexMCP			IndexPIP			IndexTip			MiddleMCP			MiddlePIP			MiddleTip			RingMCP			RingPIP			RingTip			PinkyMCP			PinkyPIP			PinkyTip			BackHand1			BackHand2			BackHand3	
		X0	Y0	Z0	X1	Y1	Z1	X2	Y2	Z2	X3	Y3	Z3	X4	Y4	Z4	X5	Y5	Z5	X6	Y6	Z6	X7	Y7	Z7	X8	Y8	Z8	X9	Y9	Z9	X10	Y10	Z10	X11	Y11	Z11	X12	Y12	Z12	X13	Y13	Z13	X14	Y14	Z14	X15	Y15	Z15	X16	Y16	Z16	X17	Y17	Z17	X18	Y18	Z18	
0	0	-87.8381	0.214414	-11.2756	-75.6594	-10.056	-42.2086	-73.4559	-18.191	-73.7041	-93.6403	-28.928	-95.9971	-113.986	32.0839	-78.1739	-109.657	37.551	-104.777	-107.415	38.3338	-136.025	-130.492	13.8493	-90.3536	-121.014	-13.2998	-107.024	-114.221	-28.5164	-70.9259	-142.757	-2.23117	-85.5861	-133.563	-28.6192	-92.6507	-124.799	-34.7155	-59.688	-161.593	-13.776	-74.4183	-149.511	-34.4322	-82.2574	-133.853	-39.9023	-55.6756	-152.924	17.4541	-30.8598	-152.779	9.07631	4.44155	-122.101	23.9824	-13.4207	
1	0.00833333	-93.1891	4.13842	-12.3515	-79.9358	-4.0755	-43.7675	-85.4144	-12.5981	-71.8043	-103.595	-24.502	-92.2455	-120.008	37.6289	-76.8386	-118.064	45.1306	-104.921	-116.801	48.1332	-132.419	-129.542	11.7031	-90.3399	-117.337	-13.8961	-99.893	-114.739	-22.9141	-59.4054	-145.614	-6.84573	-80.7453	-127.355	-30.8875	-80.4109	-123.347	-25.3007	-43.2111	-157.792	-15.8909	-68.8519	-138.512	-39.9307	-66.8563	-133.609	-35.8389	-39.4259	-158.594	15.5038	-26.7196	-156.051	10.893	3.49568	-125.872	26.5886	-13.2133	
2	0.0166667	-95.63	5.63595	-11.011	-83.7197	-1.7847	-41.8785	-89.0029	-10.3863	-77.1092	-106.514	-21.2824	-88.252	-120.427	43.4085	-79.6115	-123.081	47.628	-101.31	-119.928	55.5022	-125.848	-133.712	11.4517	-86.3107	-116.469	-15.7155	-93.2271	-113.07	-18.3829	-54.0843	-142.05	-4.40986	-76.6475	-124.223	-31.7199	-68.817	-125.416	-21.5048	-37.2276	-156.617	-19.3311	-68.6783	-136.963	-38.8476	-58.7332	-135.474	-28.101	-32.5048	-162.533	16.1533	-27.01	-157.338	9.58348	3.32585	-130.346	26.4391	-9.97171	
3	0.025	-96.4662	9.07766	-17.4668	-89.0726	-0.911952	-46.3561	-93.6219	-10.3621	-76.4068	-110.461	-22.4454	-89.4095	-127.964	42.134	-80.1707	-126.272	51.3081	-105.159	-131.584	53.3945	-125.126	-135.663	11.792	-85.3798	-118.517	-18.1013	-90.0207	-118.584	-17.0576	-51.9222	-143.058	-7.31279	-77.6235	-126.689	-31.9886	-66.9155	-124.56	-22.4522	-38.0425	-156.506	-16.8821	-66.0699	-135.023	-35.4894	-57.4188	-136.223	-26.4674	-28.1022	-164.15	16.0957	-30.5153	-163.717	8.05023	1.86445	-132.976	28.6452	-13.6275	
4	0.0333333	-102.858	6.58869	-15.1635	-92.3791	-0.896181	-50.2682	-94.9494	-11.1815	-78.7497	-117.044	-23.9025	-93.0861	-129.667	43.2559	-77.9325	-131.931	49.5272	-101.178	-133.676	56.7304	-125.411	-136.852	10.2069	-91.1935	-119.658	-17.5789	-88.7809	-118.979	-16.3832	-53.3018	-150.744	-10.3656	-76.521	-128.465	-31.7404	-66.4606	-130.662	-18.9357	-35.9962	-161.146	-22.9564	-67.1597	-138.925	-34.0476	-58.224	-139.659	-25.1573	-27.8222	-168.859	16.856	-29.9472	-161.926	11.5686	0.33657	-136.365	27.4998	-14.8795	
5	0.0416667	-106.056	8.80921	-20.8229	-96.0256	0.320188	-51.0339	-103.158	-9.52837	-81.8048	-122.475	-23.4025	-94.6172	-132.932	43.7508	-78.2804	-139.889	48.9892	-106.317	-139.498	56.2605	-126.786	-144.274	8.78726	-90.5228	-125.193	-16.059	-92.7766	-125.848	-16.3457	-54.4575	-155.116	-9.87678	-77.7025	-135.029	-32.3174	-67.6399	-134.287	-21.9154	-38.5972	-164.115	-19.9459	-68.7082	-143.599	-34.1419	-60.7814	-144.354	-25.2318	-30.661	-168.601	17.888	-27.3927	-165.946	9.53761	1.38483	-136.245	29.2715	-14.7518	
6	0.05	-106.16	10.6476	-22.6315	-97.0265	0.137931	-54.7266	-104.232	-11.9372	-79.0798	-124.864	-23.6165	-92.5085	-141.251	42.3203	-84.758	-139.624	48.4329	-105.187	-145.675	53.2766	-129.346	-148.24	7.54067	-92.2489	-129.237	-15.1898	-95.8272	-126.985	-15.6344	-53.906	-155.877	-5.6769	-77.9885	-138.324	-31.3883	-71.6391	-133.74	-18.38	-38.2577	-168.091	-22.4487	-69.0877	-145.141	-35.969	-56.6905	-146.321	-24.8589	-30.3643	-169.399	16.8597	-28.7761	-169.211	9.2868	2.01491	-142.247	29.6081	-14.6653	
7	0.0583333	-107.572	9.24964	-20.3301	-98.1943	-3.15872	-53.6687	-106.078	-15.8368	-85.3869	-127.119	-30.845	-95.2559	-143.705	38.0558	-87.1952	-143.914	43.087	-113.978	-150.255	45.113	-133.753	-149.499	2.69546	-93.7149	-132.1	-21.5393	-95.1455	-126.915	-15.1109	-53.0739	-157.569	-11.5133	-79.9422	-141.839	-37.118	-70.315	-137.33	-25.2348	-40.3442	-168.166	-28.1364	-70.8448	-147.945	-39.7819	-59.3991	-148.054	-25.227	-29.4532	-176.762	11.6653	-30.3006	-171.5	8.52686	-1.51573	-142.967	30.535	-18.6429	
8	0.0666667	-109.886	3.05334	-25.5694	-102.153	-11.6074	-56.6801	-110.189	-26.3026	-81.1665	-133.224	-41.5973	-90.9509	-145.077	26.3321	-89.4049	-147.745	28.6361	-119.314	-148.596	30.2968	-144.783	-152.025	-6.53124	-92.7696	-134.048	-36.0515	-90.5821	-129.515	-25.4113	-54.1626	-159.912	-24.6329	-80.4715	-142.289	-46.5739	-69.0329	-135.91	-28.5001	-39.634	-173.079	-35.815	-67.3519	-149.38	-48.5651	-58.2	-148.307	-33.5807	-28.9971	-175.992	5.93322	-34.2287	-172.232	2.89432	-0.490175	-144.892	21.8572	-21.7428	
9	0.075	-111.669	-4.177	-23.411	-98.6047	-21.1131	-56.5227	-104.853	-37.7273	-80.4171	-128.979	-52.8833	-85.2196	-143.238	13.2155	-93.58	-146.716	10.3724	-117.236	-147.99	7.18889	-144.525	-149.465	-19.6287	-93.7758	-130.244	-45.6961	-89.761	-128.185	-34.4414	-52.5575	-157.006	-34.1394	-80.267	-143.175	-57.5536	-66.7592	-137.184	-38.2394	-37.9085	-171.052	-41.4702	-65.1201	-148.586	-57.5633	-52.259	-147.899	-39.8535	-29.0448	-178.586	-2.279	-33.857	-173.527	-0.682399	-4.98863	-144.244	16.2293	-22.8579	
10	0.0833333	-109.569	-8.10283	-24.1988	-99.1135	-26.7985	-52.2243	-106.245	-45.5479	-77.1256	-128.958	-61.8476	-85.9066	-140.748	-2.24032	-95.378	-137.33	-8.67951	-119.348	-138.587	-20.8378	-144.92	-147.755	-30.7356	-92.4244	-130.045	-54.3425	-85.9297	-130.481	-42.6735	-48.7909	-161.148	-44.3543	-74.7579	-142.181	-64.2071	-62.824	-136.151	-42.1849	-34.4969	-170.102	-48.4003	-62.7581	-147.925	-63.7111	-49.5951	-148.244	-44.2615	-27.2908	-177.25	-6.56471	-33.9167	-172.2	-4.0932	-6.5058	-145.397	11.5062	-24.2773	
11	0.0916667	-111.106	-10.4629	-19.1555	-95.0529	-27.8688	-49.7191	-102.417	-45.9679	-75.1847	-125.331	-60.1482	-82.5908	-133.216	-8.55147	-95.9746	-128.56	-21.3579	-118.221	-128.148	-33.1792	-136.077	-146.206	-29.5713	-89.96	-130.163	-58.1514	-82.3269	-129.093	-40.9048	-44.8628	-159.751	-41.992	-74.0564	-139.98	-63.2098	-63.2859	-137.358	-46.3594	-33.5166	-165.482	-50.3668	-64.7311	-148.968	-62.9601	-50.9879	-150.043	-43.0866	-24.3021	-176.237	-3.63919	-36.821	-173.758	-1.62452	-5.0237	-140.121	11.1958	-26.6463	
12	0.1	-111.996	-5.8467	-23.818	-100.524	-24.1722	-49.0715	-102.027	-42.456	-76.2483	-123.873	-57.1266	-88.0078	-131.213	-0.447044	-97.6464	-124.704	-10.7049	-119.552	-123.265	-23.2569	-137.863	-143.482	-24.0098	-92.3671	-129.103	-52.3724	-83.391	-128.089	-41.2627	-47.9886	-160.053	-38.3166	-76.2612	-137.451	-57.8075	-63.0436	-136.39	-40.7233	-34.9463	-170.613	-45.0109	-63.7555	-150.349	-59.4102	-52.3869	-147.934	-38.0235	-26.0603	-171.259	0.872591	-38.9277	-170.322	2.51372	-3.44407	-141.265	14.3504	-23.7965	
13	0.108333	-107.552	-2.1216	-20.4506	-95.2442	-18.8781	-52.7533	-101.002	-35.0849	-79.741	-123.639	-50.4572	-89.8079	-133.31	12.7614	-93.0025	-126.261	8.63136	-118.419	-120.796	-4.15167	-145.232	-142.698	-16.8397	-94.7995	-125.575	-43.4317	-87.2387	-123.859	-35.531	-50.8936	-154.397	-30.9062	-79.0264	-138.382	-51.4347	-67.3546	-133.535	-36.5782	-37.2248	-163.478	-38.3121	-68.5147	-145.888	-52.0205	-50.7954	-145.413	-33.219	-28.7489	-170.435	5.46587	-38.4865	-169.697	7.468	-5.57264	-140.5	21.3869	-20.7237	
14	0.116667	-101.213	3.15559	-19.7846	-88.9599	-13.7788	-48.1458	-92.9945	-29.8584	-76.8345	-115.796	-42.8423	-88.5926	-125.398	20.6394	-94.2507	-118.538	17.2001	-118.427	-110.912	6.94615	-143.468	-135.09	-7.54303	-92.2604	-118.76	-36.4014	-88.8273	-121.891	-28.1973	-47.5958	-147.652	-23.9176	-78.8701	-131.671	-46.2989	-65.178	-128.251	-31.6395	-37.6374	-159.948	-35.7359	-68.6616	-142.741	-48.9061	-54.3193	-142.854	-28.4253	-25.7666	-168.654	10.0667	-35.5684	-163.331	9.53701	-6.42168	-136.274	24.5007	-22.1622	
